# xmcd
#
# Track frame offsets:
#	150
#	6696
#	18087
#	31563
#	44018
#	57494
#	68533
#	76270
#	94215
#	108972
#	122732
#	133124
#	144582
#	157053
#	177159
#	188872
#	200510
#	216903
#	233784
#	248151
#
# Disc length: 3467 seconds
#
# Revision: 0
# Processed by: cddbd v1.5.2PL0 Copyright (c) Steve Scherf et al.
# Submitted via: EasyCDDAExtractor 8.1.2.3
#
DISCID=190d8914
DTITLE=Nashawn - Nas presents Nashawn
DYEAR=2007
DGENRE=Rap
TTITLE0=intro
TTITLE1=number 1
TTITLE2=slow it down
TTITLE3=somebody gotta die
TTITLE4=bossed up featuring nas
TTITLE5=understand
TTITLE6=a huned
TTITLE7=in jail
TTITLE8=we gittin it
TTITLE9=follow me
TTITLE10=my style
TTITLE11=da carlot
TTITLE12=that money
TTITLE13=rat ass niggaz
TTITLE14=fait ball
TTITLE15=take a picture featuring nas
TTITLE16=all summer long featuring jung
TTITLE17=its true
TTITLE18=hustlin
TTITLE19=bring it
EXTD=
EXTT0=
EXTT1=
EXTT2=
EXTT3=
EXTT4=
EXTT5=
EXTT6=
EXTT7=
EXTT8=
EXTT9=
EXTT10=
EXTT11=
EXTT12=
EXTT13=
EXTT14=
EXTT15=
EXTT16=
EXTT17=
EXTT18=
EXTT19=
PLAYORDER=
